<svg class="ad" viewBox="0 0 936 418" role="img" aria-label="Последовательность одного кадра" xmlns="http://www.w3.org/2000/svg"><style>
svg.ad{--a-bg:#ffffff;--a-surface:#ffffff;--a-ink:#17181b;--a-ink2:#4a4d57;--a-ink3:#6b6e78;--a-line:#b9bcc6;--a-accent:#3b50d8}
@media (prefers-color-scheme:dark){svg.ad{--a-bg:#0d1117;--a-surface:#161b22;--a-ink:#ecedf0;--a-ink2:#a6a9b2;--a-ink3:#8b8e98;--a-line:#454a54;--a-accent:#8b9bff}}
svg.ad .ad-bx{fill:var(--a-surface);stroke:var(--a-line);stroke-width:1.5}
svg.ad .ad-c{stroke:var(--a-accent)}
svg.ad .ad-x{stroke:var(--a-ink3);stroke-dasharray:5 4}
svg.ad .ad-p{stroke:var(--a-ink)}
svg.ad .ad-t1{fill:var(--a-ink);font:700 13px system-ui,-apple-system,"Segoe UI",sans-serif}
svg.ad .ad-t2{fill:var(--a-ink3);font:500 11px ui-monospace,Menlo,monospace}
svg.ad .ad-ln{stroke:var(--a-ink3);stroke-width:1.5;fill:none}
svg.ad .ad-ds{stroke-dasharray:5 4}
svg.ad .ad-ar{fill:var(--a-ink3)}
svg.ad .ad-lbbg{fill:var(--a-bg)}
svg.ad .ad-lb,svg.ad .ad-lb2{fill:var(--a-ink2);font:500 11px ui-monospace,Menlo,monospace}
svg.ad .ad-life{stroke:var(--a-line);stroke-width:1;stroke-dasharray:2 4}
svg.ad .ad-note{fill:var(--a-surface);stroke:var(--a-line);stroke-width:1}
</style><defs><marker id="seq-frame-ah2" viewBox="0 0 10 10" refX="9" refY="5" markerWidth="7" markerHeight="7" orient="auto-start-reverse"><path d="M0 0L10 5L0 10z" class="ad-ar"/></marker></defs><rect x="6.0" y="6" width="144" height="30" rx="6" class="ad-bx ad-c"/><text x="78.0" y="26" text-anchor="middle" class="ad-t1">Цикл</text><line x1="78.0" y1="38" x2="78.0" y2="410" class="ad-life"/><rect x="162.0" y="6" width="144" height="30" rx="6" class="ad-bx ad-c"/><text x="234.0" y="26" text-anchor="middle" class="ad-t1">Мир</text><line x1="234.0" y1="38" x2="234.0" y2="410" class="ad-life"/><rect x="318.0" y="6" width="144" height="30" rx="6" class="ad-bx ad-c"/><text x="390.0" y="26" text-anchor="middle" class="ad-t1">Юниты</text><line x1="390.0" y1="38" x2="390.0" y2="410" class="ad-life"/><rect x="474.0" y="6" width="144" height="30" rx="6" class="ad-bx ad-c"/><text x="546.0" y="26" text-anchor="middle" class="ad-t1">Здания</text><line x1="546.0" y1="38" x2="546.0" y2="410" class="ad-life"/><rect x="630.0" y="6" width="144" height="30" rx="6" class="ad-bx ad-c"/><text x="702.0" y="26" text-anchor="middle" class="ad-t1">ИИ</text><line x1="702.0" y1="38" x2="702.0" y2="410" class="ad-life"/><rect x="786.0" y="6" width="144" height="30" rx="6" class="ad-bx ad-c"/><text x="858.0" y="26" text-anchor="middle" class="ad-t1">Картинка, звук</text><line x1="858.0" y1="38" x2="858.0" y2="410" class="ad-life"/><rect x="7.2" y="52.0" width="141.6" height="22" rx="4" class="ad-note"/><text x="78.0" y="67.0" text-anchor="middle" class="ad-t2">ввод: мышь, клавиши</text><line x1="78.0" y1="98.0" x2="232.0" y2="98.0" class="ad-ln" marker-end="url(#seq-frame-ah2)"/><text x="156.0" y="93.0" text-anchor="middle" class="ad-lb2">update(dt)</text><line x1="234.0" y1="132.0" x2="388.0" y2="132.0" class="ad-ln" marker-end="url(#seq-frame-ah2)"/><text x="312.0" y="127.0" text-anchor="middle" class="ad-lb2">update каждого юнита</text><rect x="325.6" y="154.0" width="128.8" height="22" rx="4" class="ad-note"/><text x="390.0" y="169.0" text-anchor="middle" class="ad-t2">путь, добыча, бой</text><line x1="234.0" y1="200.0" x2="544.0" y2="200.0" class="ad-ln" marker-end="url(#seq-frame-ah2)"/><text x="390.0" y="195.0" text-anchor="middle" class="ad-lb2">очереди и стройка</text><rect x="163.2" y="222.0" width="141.6" height="22" rx="4" class="ad-note"/><text x="234.0" y="237.0" text-anchor="middle" class="ad-t2">туман, хуки, победа</text><line x1="234.0" y1="268.0" x2="700.0" y2="268.0" class="ad-ln" marker-end="url(#seq-frame-ah2)"/><text x="468.0" y="263.0" text-anchor="middle" class="ad-lb2">ai.update(dt)</text><line x1="702.0" y1="302.0" x2="392.0" y2="302.0" class="ad-ln" marker-end="url(#seq-frame-ah2)"/><text x="546.0" y="297.0" text-anchor="middle" class="ad-lb2">приказы cmd_*</text><line x1="234.0" y1="336.0" x2="80.0" y2="336.0" class="ad-ln ad-ds" marker-end="url(#seq-frame-ah2)"/><text x="156.0" y="331.0" text-anchor="middle" class="ad-lb2">мир обновлён</text><line x1="78.0" y1="370.0" x2="856.0" y2="370.0" class="ad-ln" marker-end="url(#seq-frame-ah2)"/><text x="468.0" y="365.0" text-anchor="middle" class="ad-lb2">draw + события мира</text></svg>