<svg class="ad" viewBox="0 0 804 324" role="img" aria-label="Components of the hall and people rendering" xmlns="http://www.w3.org/2000/svg"><style>
svg.ad{--a-bg:#ffffff;--a-surface:#ffffff;--a-ink:#17181b;--a-ink2:#4a4d57;--a-ink3:#6b6e78;--a-line:#b9bcc6;--a-accent:#3b50d8}
@media (prefers-color-scheme:dark){svg.ad{--a-bg:#0d1117;--a-surface:#161b22;--a-ink:#ecedf0;--a-ink2:#a6a9b2;--a-ink3:#8b8e98;--a-line:#454a54;--a-accent:#8b9bff}}
svg.ad .ad-bx{fill:var(--a-surface);stroke:var(--a-line);stroke-width:1.5}
svg.ad .ad-c{stroke:var(--a-accent)}
svg.ad .ad-x{stroke:var(--a-ink3);stroke-dasharray:5 4}
svg.ad .ad-p{stroke:var(--a-ink)}
svg.ad .ad-t1{fill:var(--a-ink);font:700 13px system-ui,-apple-system,"Segoe UI",sans-serif}
svg.ad .ad-t2{fill:var(--a-ink3);font:500 11px ui-monospace,Menlo,monospace}
svg.ad .ad-ln{stroke:var(--a-ink3);stroke-width:1.5;fill:none}
svg.ad .ad-ds{stroke-dasharray:5 4}
svg.ad .ad-ar{fill:var(--a-ink3)}
svg.ad .ad-lbbg{fill:var(--a-bg)}
svg.ad .ad-lb,svg.ad .ad-lb2{fill:var(--a-ink2);font:500 11px ui-monospace,Menlo,monospace}
svg.ad .ad-life{stroke:var(--a-line);stroke-width:1;stroke-dasharray:2 4}
svg.ad .ad-note{fill:var(--a-surface);stroke:var(--a-line);stroke-width:1}
</style><defs><marker id="c3-render-ah" viewBox="0 0 10 10" refX="9" refY="5" markerWidth="7" markerHeight="7" orient="auto-start-reverse"><path d="M0 0L10 5L0 10z" class="ad-ar"/></marker></defs><line x1="315.0" y1="126.9" x2="221.0" y2="89.1" class="ad-ln" marker-end="url(#c3-render-ah)"/><line x1="402.0" y1="125.0" x2="402.0" y2="91.0" class="ad-ln" marker-end="url(#c3-render-ah)"/><line x1="489.0" y1="126.9" x2="583.0" y2="89.1" class="ad-ln" marker-end="url(#c3-render-ah)"/><line x1="489.0" y1="162.0" x2="583.0" y2="162.0" class="ad-ln" marker-end="url(#c3-render-ah)"/><line x1="583.0" y1="270.0" x2="489.0" y2="270.0" class="ad-ln" marker-end="url(#c3-render-ah)"/><line x1="315.0" y1="162.0" x2="221.0" y2="162.0" class="ad-ln ad-ds" marker-end="url(#c3-render-ah)"/><rect x="318.0" y="128.0" width="168" height="68" rx="6" class="ad-bx ad-c"/><text x="402.0" y="158.0" text-anchor="middle" class="ad-t1">Scene</text><text x="402.0" y="174.0" text-anchor="middle" class="ad-t2">scene.js</text><rect x="50.0" y="20.0" width="168" height="68" rx="6" class="ad-bx ad-c"/><text x="134.0" y="50.0" text-anchor="middle" class="ad-t1">Camera</text><text x="134.0" y="66.0" text-anchor="middle" class="ad-t2">camera.js</text><rect x="318.0" y="20.0" width="168" height="68" rx="6" class="ad-bx ad-c"/><text x="402.0" y="50.0" text-anchor="middle" class="ad-t1">Quality</text><text x="402.0" y="66.0" text-anchor="middle" class="ad-t2">quality.js</text><rect x="586.0" y="20.0" width="168" height="68" rx="6" class="ad-bx ad-c"/><text x="670.0" y="50.0" text-anchor="middle" class="ad-t1">Textures</text><text x="670.0" y="66.0" text-anchor="middle" class="ad-t2">textures.js</text><rect x="586.0" y="128.0" width="168" height="68" rx="6" class="ad-bx ad-c"/><text x="670.0" y="158.0" text-anchor="middle" class="ad-t1">Props</text><text x="670.0" y="174.0" text-anchor="middle" class="ad-t2">props.js</text><rect x="318.0" y="236.0" width="168" height="68" rx="6" class="ad-bx ad-c"/><text x="402.0" y="266.0" text-anchor="middle" class="ad-t1">People</text><text x="402.0" y="282.0" text-anchor="middle" class="ad-t2">people.js</text><rect x="586.0" y="236.0" width="168" height="68" rx="6" class="ad-bx ad-c"/><text x="670.0" y="266.0" text-anchor="middle" class="ad-t1">Looks</text><text x="670.0" y="282.0" text-anchor="middle" class="ad-t2">looks.js</text><rect x="50.0" y="128.0" width="168" height="68" rx="6" class="ad-bx ad-x"/><text x="134.0" y="158.0" text-anchor="middle" class="ad-t1">Layout</text><text x="134.0" y="174.0" text-anchor="middle" class="ad-t2">content/layout.js</text><rect x="250.2" y="99.0" width="35.6" height="16" rx="3" class="ad-lbbg"/><text x="268.0" y="111.0" text-anchor="middle" class="ad-lb">view</text><rect x="365.0" y="99.0" width="74.0" height="16" rx="3" class="ad-lbbg"/><text x="402.0" y="111.0" text-anchor="middle" class="ad-lb">sample(dt)</text><rect x="495.8" y="99.0" width="80.4" height="16" rx="3" class="ad-lbbg"/><text x="536.0" y="111.0" text-anchor="middle" class="ad-lb">baked light</text><rect x="515.0" y="140.0" width="42.0" height="16" rx="3" class="ad-lbbg"/><text x="536.0" y="152.0" text-anchor="middle" class="ad-lb">decor</text><rect x="473.4" y="248.0" width="125.2" height="16" rx="3" class="ad-lbbg"/><text x="536.0" y="260.0" text-anchor="middle" class="ad-lb">look, via assembly</text><rect x="221.4" y="140.0" width="93.2" height="16" rx="3" class="ad-lbbg"/><text x="268.0" y="152.0" text-anchor="middle" class="ad-lb">tables, walls</text></svg>